REM DIRINDEX 1\5,1\2\6,1\2\7,1\3\8,1\3\9,1\4\10,1\4\11,1\4\12
REM DIRNAME folder01,folder02,folder03,folder04,folder05,folder06,folder07,folder08,folder09,folder10,folder11,folder12
TITLE ""
FILE "EJE_DB3000_5th_6C_42.mp3" MP3
  TRACK 01 AUDIO
    TITLE "0:"
    INDEX 01 00:00:00
  TRACK 02 AUDIO
    TITLE "10:cjc026_11781"
    INDEX 01 00:00:05
  TRACK 03 AUDIO
    TITLE "0:"
    INDEX 01 00:00:74
  TRACK 04 AUDIO
    TITLE "11:cjc026_11782"
    INDEX 01 00:01:24
  TRACK 05 AUDIO
    TITLE "0:"
    INDEX 01 00:02:30
  TRACK 06 AUDIO
    TITLE "12:cjc026_11783"
    INDEX 01 00:02:55
  TRACK 07 AUDIO
    TITLE "0:"
    INDEX 01 00:03:49
  TRACK 08 AUDIO
    TITLE "10:cjc026_11784"
    INDEX 01 00:03:74
  TRACK 09 AUDIO
    TITLE "0:"
    INDEX 01 00:04:72
  TRACK 10 AUDIO
    TITLE "11:cjc026_11785"
    INDEX 01 00:05:24
  TRACK 11 AUDIO
    TITLE "0:"
    INDEX 01 00:06:30
  TRACK 12 AUDIO
    TITLE "12:cjc026_11786"
    INDEX 01 00:06:57
  TRACK 13 AUDIO
    TITLE "0:"
    INDEX 01 00:07:56
  TRACK 14 AUDIO
    TITLE "10:cjc026_11787"
    INDEX 01 00:08:07
  TRACK 15 AUDIO
    TITLE "0:"
    INDEX 01 00:09:12
  TRACK 16 AUDIO
    TITLE "11:cjc026_11788"
    INDEX 01 00:09:38
  TRACK 17 AUDIO
    TITLE "0:"
    INDEX 01 00:10:49
  TRACK 18 AUDIO
    TITLE "12:cjc026_11789"
    INDEX 01 00:10:74
  TRACK 19 AUDIO
    TITLE "0:"
    INDEX 01 00:12:05
  TRACK 20 AUDIO
    TITLE "10:cjc026_11790"
    INDEX 01 00:12:30
  TRACK 21 AUDIO
    TITLE "0:"
    INDEX 01 00:13:30
  TRACK 22 AUDIO
    TITLE "11:cjc026_11791"
    INDEX 01 00:13:53
  TRACK 23 AUDIO
    TITLE "0:"
    INDEX 01 00:14:56
  TRACK 24 AUDIO
    TITLE "12:cjc026_11792"
    INDEX 01 00:15:05
  TRACK 25 AUDIO
    TITLE "0:"
    INDEX 01 00:16:06
  TRACK 26 AUDIO
    TITLE "10:cjc026_11793"
    INDEX 01 00:16:30
  TRACK 27 AUDIO
    TITLE "0:"
    INDEX 01 00:17:18
  TRACK 28 AUDIO
    TITLE "11:cjc026_11794"
    INDEX 01 00:17:45
  TRACK 29 AUDIO
    TITLE "0:"
    INDEX 01 00:18:58
  TRACK 30 AUDIO
    TITLE "12:cjc026_11795"
    INDEX 01 00:19:07
  TRACK 31 AUDIO
    TITLE "0:"
    INDEX 01 00:19:71
  TRACK 32 AUDIO
    TITLE "10:cjc026_11796"
    INDEX 01 00:20:22
  TRACK 33 AUDIO
    TITLE "0:"
    INDEX 01 00:21:17
  TRACK 34 AUDIO
    TITLE "11:cjc026_11797"
    INDEX 01 00:21:43
  TRACK 35 AUDIO
    TITLE "0:"
    INDEX 01 00:22:48
  TRACK 36 AUDIO
    TITLE "12:cjc026_11798"
    INDEX 01 00:22:74
  TRACK 37 AUDIO
    TITLE "0:"
    INDEX 01 00:23:69
  TRACK 38 AUDIO
    TITLE "10:cjc026_11799"
    INDEX 01 00:24:22
  TRACK 39 AUDIO
    TITLE "0:"
    INDEX 01 00:25:13
  TRACK 40 AUDIO
    TITLE "11:cjc026_11800"
    INDEX 01 00:25:39
  TRACK 41 AUDIO
    TITLE "0:"
    INDEX 01 00:26:46
  TRACK 42 AUDIO
    TITLE "12:cjc026_11801"
    INDEX 01 00:26:73
  TRACK 43 AUDIO
    TITLE "0:"
    INDEX 01 00:27:67
  TRACK 44 AUDIO
    TITLE "10:cjc026_11802"
    INDEX 01 00:28:15
  TRACK 45 AUDIO
    TITLE "0:"
    INDEX 01 00:29:01
  TRACK 46 AUDIO
    TITLE "11:cjc026_11803"
    INDEX 01 00:29:29
  TRACK 47 AUDIO
    TITLE "0:"
    INDEX 01 00:30:10
  TRACK 48 AUDIO
    TITLE "12:cjc026_11804"
    INDEX 01 00:30:36
  TRACK 49 AUDIO
    TITLE "0:"
    INDEX 01 00:31:22
  TRACK 50 AUDIO
    TITLE "10:cjc026_11805"
    INDEX 01 00:31:47
  TRACK 51 AUDIO
    TITLE "0:"
    INDEX 01 00:32:43
  TRACK 52 AUDIO
    TITLE "11:cjc026_11806"
    INDEX 01 00:32:68
  TRACK 53 AUDIO
    TITLE "0:"
    INDEX 01 00:33:66
  TRACK 54 AUDIO
    TITLE "12:cjc026_11807"
    INDEX 01 00:34:16
  TRACK 55 AUDIO
    TITLE "0:"
    INDEX 01 00:35:10
  TRACK 56 AUDIO
    TITLE "10:cjc026_11808"
    INDEX 01 00:35:37
  TRACK 57 AUDIO
    TITLE "0:"
    INDEX 01 00:36:35
  TRACK 58 AUDIO
    TITLE "11:cjc026_11809"
    INDEX 01 00:36:62
  TRACK 59 AUDIO
    TITLE "0:"
    INDEX 01 00:37:57
  TRACK 60 AUDIO
    TITLE "12:cjc026_11810"
    INDEX 01 00:38:08
  TRACK 61 AUDIO
    TITLE "0:"
    INDEX 01 00:39:05
  TRACK 62 AUDIO
    TITLE "10:cjc026_11811"
    INDEX 01 00:39:33
  TRACK 63 AUDIO
    TITLE "0:"
    INDEX 01 00:40:21
  TRACK 64 AUDIO
    TITLE "11:cjc026_11812"
    INDEX 01 00:40:48
  TRACK 65 AUDIO
    TITLE "0:"
    INDEX 01 00:41:63
  TRACK 66 AUDIO
    TITLE "12:cjc026_11813"
    INDEX 01 00:42:14
  TRACK 67 AUDIO
    TITLE "0:"
    INDEX 01 00:43:01
  TRACK 68 AUDIO
    TITLE "10:cjc026_11814"
    INDEX 01 00:43:29
  TRACK 69 AUDIO
    TITLE "0:"
    INDEX 01 00:44:18
  TRACK 70 AUDIO
    TITLE "11:cjc026_11815"
    INDEX 01 00:44:46
  TRACK 71 AUDIO
    TITLE "0:"
    INDEX 01 00:45:57
  TRACK 72 AUDIO
    TITLE "12:cjc026_11816"
    INDEX 01 00:46:07
  TRACK 73 AUDIO
    TITLE "0:"
    INDEX 01 00:46:72
  TRACK 74 AUDIO
    TITLE "10:cjc026_11817"
    INDEX 01 00:47:25
  TRACK 75 AUDIO
    TITLE "0:"
    INDEX 01 00:48:12
  TRACK 76 AUDIO
    TITLE "11:cjc026_11818"
    INDEX 01 00:48:38
  TRACK 77 AUDIO
    TITLE "0:"
    INDEX 01 00:49:65
  TRACK 78 AUDIO
    TITLE "12:cjc026_11819"
    INDEX 01 00:50:15
  TRACK 79 AUDIO
    TITLE "0:"
    INDEX 01 00:51:03
